<svg xmlns="http://www.w3.org/2000/svg" viewBox="0 0 232.45 232.45"><defs><style>.f7712d43-a4aa-4e45-bfa1-826f6e9a21a8{fill:#5035ff;}.a75b4ed7-d28f-475f-81f0-fbd3508f6e6b{fill:none;}</style></defs><title>Fichier 2</title><g id="e65bb3f2-b6cb-4b35-bcf3-dcd85758ee56" data-name="Calque 2"><g id="bff3f98f-81bf-48ad-bd7f-1b2d7d6a9a70" data-name="Calque 1"><ellipse class="f7712d43-a4aa-4e45-bfa1-826f6e9a21a8" cx="137.47" cy="137.81" rx="6.89" ry="10.47" transform="translate(-54.19 103.82) rotate(-35.01)"/><ellipse class="f7712d43-a4aa-4e45-bfa1-826f6e9a21a8" cx="183.49" cy="136.04" rx="9.32" ry="6.14" transform="translate(-41.12 177.59) rotate(-47.04)"/><ellipse class="f7712d43-a4aa-4e45-bfa1-826f6e9a21a8" cx="210.06" cy="124.15" rx="9.32" ry="6.14" transform="translate(-23.96 193.25) rotate(-47.04)"/><ellipse class="f7712d43-a4aa-4e45-bfa1-826f6e9a21a8" cx="183.49" cy="156.95" rx="9.32" ry="6.14" transform="translate(-56.42 184.26) rotate(-47.04)"/><ellipse class="f7712d43-a4aa-4e45-bfa1-826f6e9a21a8" cx="210.06" cy="145.07" rx="9.32" ry="6.14" transform="translate(-39.26 199.91) rotate(-47.04)"/><ellipse class="f7712d43-a4aa-4e45-bfa1-826f6e9a21a8" cx="183.49" cy="177.87" rx="9.32" ry="6.14" transform="translate(-71.73 190.92) rotate(-47.04)"/><ellipse class="f7712d43-a4aa-4e45-bfa1-826f6e9a21a8" cx="210.06" cy="165.98" rx="9.32" ry="6.14" transform="translate(-54.57 206.57) rotate(-47.04)"/><ellipse class="f7712d43-a4aa-4e45-bfa1-826f6e9a21a8" cx="112.43" cy="164.85" rx="6.89" ry="10.47" transform="translate(-74.24 94.34) rotate(-35.01)"/><ellipse class="f7712d43-a4aa-4e45-bfa1-826f6e9a21a8" cx="160.45" cy="90.83" rx="10.47" ry="6.89"/><path class="f7712d43-a4aa-4e45-bfa1-826f6e9a21a8" d="M232.44,175.53V95.11a12.17,12.17,0,0,0-.09-1.54,6.24,6.24,0,0,0-3.56-4.88h0l-58.53-27.8-.18-.08c-8.84-4.1-17.4-.81-19.12-.06l-.26.12,0,0L92.08,88.7l-1.59.76c-1.16.9-2,2.6-2,5.65v80.42s-.85,7.26,12.59,12.8l52.07,24a20.37,20.37,0,0,0,5.68,1.15,21.06,21.06,0,0,0,3.17,0,23.91,23.91,0,0,0,6.63-1.52h0l0,0,51.19-23.55C233.29,182.79,232.44,175.53,232.44,175.53ZM110.84,89.78,153.5,69.52h0l.18-.09a17.29,17.29,0,0,1,13.56,0l.13.06,42.65,20.26c4.47,2.29,3.06,4.58,0,6l-.14.07L169.3,114.77a22,22,0,0,1-17.08.29c-.09,0-.18-.09-.27-.12l-.3-.15,0,0-40.75-19h0l-.31-.15C107.69,94.2,106.52,92,110.84,89.78ZM155.33,131v66.67c0,5.68-6.54,3.27-6.54,3.27l-43-19.79c-10.84-4.47-10.15-10.32-10.15-10.32V105.93c0-7.57,6.54-4.82,6.54-4.82l44.39,20.67C155.85,126.1,155.33,131,155.33,131Zm59.8,50.15-43,19.79s-6.54,2.41-6.54-3.27V131s-.52-4.86,8.78-9.18l44.38-20.67s6.54-2.75,6.54,4.82v64.86S226,176.64,215.13,181.11Z"/><path class="f7712d43-a4aa-4e45-bfa1-826f6e9a21a8" d="M55.78,27.77h50s6,.13,11.4,6.11l26.59,30.48,9.2-3.24-32.51-37A18.74,18.74,0,0,0,107.73,19H42.78a6.31,6.31,0,0,0-2.31.43c-2.29.91-6.6,3.73-10.48,12.47L2.16,92.75s-4.85,11.36,0,16.21l41,47.49a22.88,22.88,0,0,0,17.36,7.41H91.14V93.52l34.48-19.35-4.48,1.09H96.46a28.49,28.49,0,0,1-8.37-4.38l-34-38.51S50.84,27.77,55.78,27.77ZM79.27,75.94c2.72,3.41,0,10.55,0,10.55L52.88,144.88c-2.55,5.27-7.32,0-7.32,0l-33.7-38.81c-5.27-6.3,0-13.74,0-13.74l24.68-55.2c3.24-7.32,9,0,9,0Z"/><ellipse class="f7712d43-a4aa-4e45-bfa1-826f6e9a21a8" cx="42.3" cy="62.27" rx="6.8" ry="9.65" transform="translate(-13.36 11.59) rotate(-13.5)"/><ellipse class="f7712d43-a4aa-4e45-bfa1-826f6e9a21a8" cx="75.82" cy="39.46" rx="6.8" ry="9.65" transform="translate(11.26 95.48) rotate(-68.44)"/><ellipse class="f7712d43-a4aa-4e45-bfa1-826f6e9a21a8" cx="102.89" cy="51.55" rx="6.8" ry="9.65" transform="translate(17.15 128.3) rotate(-68.44)"/><ellipse class="f7712d43-a4aa-4e45-bfa1-826f6e9a21a8" cx="129.95" cy="63.63" rx="6.8" ry="9.65" transform="translate(23.03 161.11) rotate(-68.44)"/><ellipse class="f7712d43-a4aa-4e45-bfa1-826f6e9a21a8" cx="26.95" cy="95.34" rx="6.8" ry="9.65" transform="translate(-21.5 8.92) rotate(-13.5)"/><ellipse class="f7712d43-a4aa-4e45-bfa1-826f6e9a21a8" cx="61.06" cy="84.12" rx="6.8" ry="9.65" transform="translate(-17.95 16.57) rotate(-13.5)"/><ellipse class="f7712d43-a4aa-4e45-bfa1-826f6e9a21a8" cx="45.7" cy="117.19" rx="6.8" ry="9.65" transform="translate(-26.09 13.9) rotate(-13.5)"/><rect class="a75b4ed7-d28f-475f-81f0-fbd3508f6e6b" width="232.45" height="232.45"/></g></g></svg>